<?xml version="1.0" encoding="UTF-8"?>
<svg width="16" height="16" viewBox="0 0 256 256" xmlns="http://www.w3.org/2000/svg">
<defs>
  <clipPath id="squircle">
    <path d="M128,2 C186,2 210,2 230,22 C254,42 254,70 254,128 C254,186 254,210 234,230 C214,254 186,254 128,254 C70,254 46,254 26,234 C2,214 2,186 2,128 C2,70 2,46 22,26 C42,2 70,2 128,2Z"/>
  </clipPath>
  <filter id="glow">
    <feGaussianBlur stdDeviation="3" result="b"/>
    <feMerge><feMergeNode in="b"/><feMergeNode in="SourceGraphic"/></feMerge>
  </filter>
  <filter id="particleGlow">
    <feGaussianBlur stdDeviation="2"/>
  </filter>
  <radialGradient id="bgGrad" cx="50%" cy="50%">
    <stop offset="0%" stop-color="#1a0a2e"/>
    <stop offset="100%" stop-color="#0d0d14"/>
  </radialGradient>
</defs>
<g clip-path="url(#squircle)">
  <!-- Background -->
  <rect width="256" height="256" fill="#0d0d14"/>
  <rect width="256" height="256" fill="url(#bgGrad)" opacity="0.3"/>

  <!-- Upper lip bars — heights form cupid's bow contour -->
  <g filter="url(#glow)">
    <rect x="48"  y="88"  width="5" height="30" rx="2" fill="#ff1744" opacity="0.9"/>
    <rect x="56"  y="82"  width="5" height="36" rx="2" fill="#ff5722" opacity="0.9"/>
    <rect x="64"  y="76"  width="5" height="42" rx="2" fill="#ff9100" opacity="0.9"/>
    <rect x="72"  y="72"  width="5" height="46" rx="2" fill="#ffab00" opacity="0.9"/>
    <rect x="80"  y="68"  width="5" height="50" rx="2" fill="#ffd600" opacity="0.9"/>
    <rect x="88"  y="72"  width="5" height="46" rx="2" fill="#c6ff00" opacity="0.9"/>
    <rect x="96"  y="78"  width="5" height="40" rx="2" fill="#76ff03" opacity="0.9"/>
    <rect x="104" y="84"  width="5" height="34" rx="2" fill="#00e676" opacity="0.9"/>
    <rect x="112" y="90"  width="5" height="28" rx="2" fill="#1de9b6" opacity="0.9"/>
    <rect x="120" y="93"  width="5" height="25" rx="2" fill="#00e5ff" opacity="0.9"/>
    <rect x="128" y="93"  width="5" height="25" rx="2" fill="#00b0ff" opacity="0.9"/>
    <rect x="136" y="90"  width="5" height="28" rx="2" fill="#2979ff" opacity="0.9"/>
    <rect x="144" y="84"  width="5" height="34" rx="2" fill="#651fff" opacity="0.9"/>
    <rect x="152" y="78"  width="5" height="40" rx="2" fill="#7c4dff" opacity="0.9"/>
    <rect x="160" y="72"  width="5" height="46" rx="2" fill="#d500f9" opacity="0.9"/>
    <rect x="168" y="68"  width="5" height="50" rx="2" fill="#f50057" opacity="0.9"/>
    <rect x="176" y="72"  width="5" height="46" rx="2" fill="#ff1744" opacity="0.9"/>
    <rect x="184" y="78"  width="5" height="40" rx="2" fill="#ff5722" opacity="0.9"/>
    <rect x="192" y="86"  width="5" height="32" rx="2" fill="#ff9100" opacity="0.9"/>
    <rect x="200" y="92"  width="5" height="26" rx="2" fill="#ffab00" opacity="0.9"/>
  </g>

  <!-- Lower lip bars — inverted, baseline ~138, bars go DOWN -->
  <g filter="url(#glow)">
    <rect x="56"  y="138" width="5" height="24" rx="2" fill="#ff5722" opacity="0.85"/>
    <rect x="64"  y="138" width="5" height="30" rx="2" fill="#ff9100" opacity="0.85"/>
    <rect x="72"  y="138" width="5" height="38" rx="2" fill="#ffab00" opacity="0.85"/>
    <rect x="80"  y="138" width="5" height="44" rx="2" fill="#ffd600" opacity="0.85"/>
    <rect x="88"  y="138" width="5" height="50" rx="2" fill="#c6ff00" opacity="0.85"/>
    <rect x="96"  y="138" width="5" height="54" rx="2" fill="#76ff03" opacity="0.85"/>
    <rect x="104" y="138" width="5" height="56" rx="2" fill="#00e676" opacity="0.85"/>
    <rect x="112" y="138" width="5" height="56" rx="2" fill="#1de9b6" opacity="0.85"/>
    <rect x="120" y="138" width="5" height="54" rx="2" fill="#00e5ff" opacity="0.85"/>
    <rect x="128" y="138" width="5" height="54" rx="2" fill="#00b0ff" opacity="0.85"/>
    <rect x="136" y="138" width="5" height="56" rx="2" fill="#2979ff" opacity="0.85"/>
    <rect x="144" y="138" width="5" height="56" rx="2" fill="#651fff" opacity="0.85"/>
    <rect x="152" y="138" width="5" height="54" rx="2" fill="#7c4dff" opacity="0.85"/>
    <rect x="160" y="138" width="5" height="50" rx="2" fill="#d500f9" opacity="0.85"/>
    <rect x="168" y="138" width="5" height="44" rx="2" fill="#f50057" opacity="0.85"/>
    <rect x="176" y="138" width="5" height="38" rx="2" fill="#ff1744" opacity="0.85"/>
    <rect x="184" y="138" width="5" height="30" rx="2" fill="#ff5722" opacity="0.85"/>
    <rect x="192" y="138" width="5" height="22" rx="2" fill="#ff9100" opacity="0.85"/>
  </g>

  <!-- Particles scattering from right side -->
  <g opacity="0.8">
    <circle cx="210" cy="115" r="2.5" fill="#ff6b6b" filter="url(#particleGlow)"/>
    <circle cx="220" cy="108" r="2"   fill="#ffd93d" filter="url(#particleGlow)"/>
    <circle cx="218" cy="125" r="1.8" fill="#6bcb77" filter="url(#particleGlow)"/>
    <circle cx="228" cy="118" r="1.5" fill="#4d96ff" filter="url(#particleGlow)"/>
    <circle cx="225" cy="130" r="2"   fill="#9b59b6" filter="url(#particleGlow)"/>
    <circle cx="232" cy="112" r="1.2" fill="#ff9100" filter="url(#particleGlow)"/>
    <circle cx="236" cy="122" r="1.8" fill="#00e5ff" filter="url(#particleGlow)"/>
    <circle cx="215" cy="140" r="1.5" fill="#f50057" filter="url(#particleGlow)"/>
    <circle cx="222" cy="145" r="1.2" fill="#76ff03" filter="url(#particleGlow)"/>
    <circle cx="240" cy="128" r="1"   fill="#ffd600" filter="url(#particleGlow)"/>
    <circle cx="212" cy="100" r="1.3" fill="#d500f9" filter="url(#particleGlow)"/>
    <circle cx="230" cy="140" r="1.4" fill="#1de9b6" filter="url(#particleGlow)"/>
  </g>
</g>
</svg>
