<?xml version="1.0" encoding="UTF-8"?>
<!--
  EnviousWispr Menu Bar Icon — PROCESSING state
  Rainbow-colored lips with wave animation suggestion. Particles drift.
  Render at 18-22px.
-->
<svg width="18" height="18" viewBox="0 0 64 64" xmlns="http://www.w3.org/2000/svg" fill="none">
  <!-- Upper lip bars — rainbow colors -->
  <g>
    <rect x="4"  y="14" width="4.5" height="14" rx="1.5" fill="#ff2d55"/>
    <rect x="11" y="11" width="4.5" height="13" rx="1.5" fill="#ff9f0a"/>
    <rect x="18" y="8"  width="4.5" height="14" rx="1.5" fill="#ffd60a"/>
    <rect x="25" y="12" width="4.5" height="10" rx="1.5" fill="#30d158"/>
    <rect x="32" y="14" width="4.5" height="9"  rx="1.5" fill="#34c759"/>
    <rect x="39" y="11" width="4.5" height="11" rx="1.5" fill="#32d8be"/>
    <rect x="46" y="7"  width="4.5" height="15" rx="1.5" fill="#64d2ff"/>
    <rect x="53" y="10" width="4.5" height="14" rx="1.5" fill="#0a84ff"/>
  </g>
  <!-- Lower lip bars — rainbow colors -->
  <g>
    <rect x="8"  y="32" width="4.5" height="10" rx="1.5" fill="#5e5ce6"/>
    <rect x="15" y="30" width="4.5" height="14" rx="1.5" fill="#bf5af2"/>
    <rect x="22" y="29" width="4.5" height="16" rx="1.5" fill="#ff2d55"/>
    <rect x="29" y="28" width="4.5" height="18" rx="1.5" fill="#ff9f0a"/>
    <rect x="36" y="29" width="4.5" height="16" rx="1.5" fill="#ffd60a"/>
    <rect x="43" y="30" width="4.5" height="14" rx="1.5" fill="#30d158"/>
    <rect x="50" y="32" width="4.5" height="10" rx="1.5" fill="#34c759"/>
  </g>
  <!-- Particles -->
  <g opacity="0.6">
    <circle cx="60" cy="16" r="1.5" fill="#ff2d55"/>
    <circle cx="62" cy="24" r="1.0" fill="#ffd60a"/>
    <circle cx="58" cy="32" r="1.2" fill="#34c759"/>
    <circle cx="63" cy="12" r="0.8" fill="#64d2ff"/>
    <circle cx="61" cy="40" r="1.0" fill="#bf5af2"/>
    <circle cx="2"  cy="20" r="0.9" fill="#0a84ff"/>
  </g>
</svg>
