<svg xmlns="http://www.w3.org/2000/svg" viewBox="0 0 256 256">
  <g transform="translate(8,13)">
    <rect x="16" y="84.2" width="14" height="20" rx="5" fill="#ff2a40" opacity="0.92"/>
    <rect x="40" y="65.75" width="14" height="32" rx="5" fill="#ff8c00" opacity="0.92"/>
    <rect x="64" y="43.36" width="14" height="48" rx="5" fill="#ffd700" opacity="0.92"/>
    <rect x="88" y="63.04" width="14" height="36" rx="5" fill="#adff2f" opacity="0.92"/>
    <rect x="112" y="81.43" width="14" height="24" rx="5" fill="#00fa9a" opacity="0.92"/>
    <rect x="136" y="63.04" width="14" height="36" rx="5" fill="#00ffff" opacity="0.92"/>
    <rect x="160" y="43.36" width="14" height="48" rx="5" fill="#1e90ff" opacity="0.92"/>
    <rect x="184" y="65.75" width="14" height="32" rx="5" fill="#4169e1" opacity="0.92"/>
    <rect x="208" y="84.2" width="14" height="20" rx="5" fill="#8a2be2" opacity="0.92"/>
    <rect x="16" y="116.8" width="14" height="20" rx="5" fill="#ff2a40" opacity="0.92"/>
    <rect x="40" y="116.8" width="14" height="32" rx="5" fill="#ff8c00" opacity="0.92"/>
    <rect x="64" y="116.8" width="14" height="48" rx="5" fill="#ffd700" opacity="0.92"/>
    <rect x="88" y="116.8" width="14" height="36" rx="5" fill="#adff2f" opacity="0.92"/>
    <rect x="112" y="116.8" width="14" height="24" rx="5" fill="#00fa9a" opacity="0.92"/>
    <rect x="136" y="116.8" width="14" height="36" rx="5" fill="#00ffff" opacity="0.92"/>
    <rect x="160" y="116.8" width="14" height="48" rx="5" fill="#1e90ff" opacity="0.92"/>
    <rect x="184" y="116.8" width="14" height="32" rx="5" fill="#4169e1" opacity="0.92"/>
    <rect x="208" y="116.8" width="14" height="20" rx="5" fill="#8a2be2" opacity="0.92"/>
  </g>
</svg>
